<svg width="35" height="35" viewBox="0 0 35 35" fill="none" xmlns="http://www.w3.org/2000/svg">
<path d="M25.7181 10.576C24.9501 9.168 23.8941 8.096 22.5501 7.36C21.2061 6.624 19.6381 6.256 17.8461 6.256C15.8621 6.256 14.1021 6.704 12.5661 7.6C11.0301 8.496 9.83013 9.776 8.96613 11.44C8.10213 13.104 7.67013 15.024 7.67013 17.2C7.67013 19.44 8.10213 21.392 8.96613 23.056C9.86213 24.72 11.0941 26 12.6621 26.896C14.2301 27.792 16.0541 28.24 18.1341 28.24C20.6941 28.24 22.7901 27.568 24.4221 26.224C26.0541 24.848 27.1261 22.944 27.6381 20.512H16.1181V15.376H34.2621V21.232C33.8141 23.568 32.8541 25.728 31.3821 27.712C29.9101 29.696 28.0061 31.296 25.6701 32.512C23.3661 33.696 20.7741 34.288 17.8941 34.288C14.6621 34.288 11.7341 33.568 9.11013 32.128C6.51813 30.656 4.47013 28.624 2.96613 26.032C1.49413 23.44 0.758125 20.496 0.758125 17.2C0.758125 13.904 1.49413 10.96 2.96613 8.368C4.47013 5.744 6.51813 3.712 9.11013 2.272C11.7341 0.799999 14.6461 0.0639992 17.8461 0.0639992C21.6221 0.0639992 24.9021 0.991999 27.6861 2.848C30.4701 4.672 32.3901 7.248 33.4461 10.576H25.7181Z" fill="#9A333D"/>
</svg>
