<svg width="1198" height="192" viewBox="0 0 1198 192" fill="none" xmlns="http://www.w3.org/2000/svg">
<path d="M113.088 51.656L80.32 141H58.56L25.792 51.656H44.992L69.568 122.696L94.016 51.656H113.088ZM119.224 105.288C119.224 98.12 120.632 91.7627 123.448 86.216C126.349 80.6693 130.232 76.4027 135.096 73.416C140.045 70.4293 145.549 68.936 151.608 68.936C156.899 68.936 161.507 70.0027 165.432 72.136C169.443 74.2693 172.643 76.9573 175.032 80.2V70.088H193.08V141H175.032V130.632C172.728 133.96 169.528 136.733 165.432 138.952C161.421 141.085 156.771 142.152 151.48 142.152C145.507 142.152 140.045 140.616 135.096 137.544C130.232 134.472 126.349 130.163 123.448 124.616C120.632 118.984 119.224 112.541 119.224 105.288ZM175.032 105.544C175.032 101.192 174.179 97.48 172.472 94.408C170.765 91.2507 168.461 88.8613 165.56 87.24C162.659 85.5333 159.544 84.68 156.216 84.68C152.888 84.68 149.816 85.4907 147 87.112C144.184 88.7333 141.88 91.1227 140.088 94.28C138.381 97.352 137.528 101.021 137.528 105.288C137.528 109.555 138.381 113.309 140.088 116.552C141.88 119.709 144.184 122.141 147 123.848C149.901 125.555 152.973 126.408 156.216 126.408C159.544 126.408 162.659 125.597 165.56 123.976C168.461 122.269 170.765 119.88 172.472 116.808C174.179 113.651 175.032 109.896 175.032 105.544ZM298.646 69.064C307.35 69.064 314.347 71.752 319.638 77.128C325.014 82.4187 327.702 89.8427 327.702 99.4V141H309.782V101.832C309.782 96.2853 308.374 92.0613 305.558 89.16C302.742 86.1733 298.902 84.68 294.038 84.68C289.174 84.68 285.291 86.1733 282.39 89.16C279.574 92.0613 278.166 96.2853 278.166 101.832V141H260.246V101.832C260.246 96.2853 258.838 92.0613 256.022 89.16C253.206 86.1733 249.366 84.68 244.502 84.68C239.553 84.68 235.627 86.1733 232.726 89.16C229.91 92.0613 228.502 96.2853 228.502 101.832V141H210.582V70.088H228.502V78.664C230.806 75.6773 233.75 73.3307 237.334 71.624C241.003 69.9173 245.014 69.064 249.366 69.064C254.913 69.064 259.862 70.2587 264.214 72.648C268.566 74.952 271.937 78.28 274.326 82.632C276.63 78.536 279.958 75.2507 284.31 72.776C288.747 70.3013 293.526 69.064 298.646 69.064ZM376.195 142.152C369.368 142.152 363.224 140.659 357.763 137.672C352.302 134.6 347.992 130.291 344.835 124.744C341.763 119.197 340.227 112.797 340.227 105.544C340.227 98.2907 341.806 91.8907 344.963 86.344C348.206 80.7973 352.6 76.5307 358.147 73.544C363.694 70.472 369.88 68.936 376.707 68.936C383.534 68.936 389.72 70.472 395.267 73.544C400.814 76.5307 405.166 80.7973 408.323 86.344C411.566 91.8907 413.187 98.2907 413.187 105.544C413.187 112.797 411.523 119.197 408.195 124.744C404.952 130.291 400.515 134.6 394.883 137.672C389.336 140.659 383.107 142.152 376.195 142.152ZM376.195 126.536C379.438 126.536 382.467 125.768 385.283 124.232C388.184 122.611 390.488 120.221 392.195 117.064C393.902 113.907 394.755 110.067 394.755 105.544C394.755 98.8027 392.963 93.64 389.379 90.056C385.88 86.3867 381.571 84.552 376.451 84.552C371.331 84.552 367.022 86.3867 363.523 90.056C360.11 93.64 358.403 98.8027 358.403 105.544C358.403 112.285 360.067 117.491 363.395 121.16C366.808 124.744 371.075 126.536 376.195 126.536ZM453.468 142.152C447.665 142.152 442.46 141.128 437.852 139.08C433.244 136.947 429.575 134.088 426.844 130.504C424.199 126.92 422.748 122.952 422.492 118.6H440.54C440.881 121.331 442.204 123.592 444.508 125.384C446.897 127.176 449.841 128.072 453.34 128.072C456.753 128.072 459.399 127.389 461.276 126.024C463.239 124.659 464.22 122.909 464.22 120.776C464.22 118.472 463.025 116.765 460.636 115.656C458.332 114.461 454.62 113.181 449.5 111.816C444.209 110.536 439.857 109.213 436.444 107.848C433.116 106.483 430.215 104.392 427.74 101.576C425.351 98.76 424.156 94.9627 424.156 90.184C424.156 86.2587 425.265 82.6747 427.484 79.432C429.788 76.1893 433.031 73.6293 437.212 71.752C441.479 69.8747 446.471 68.936 452.188 68.936C460.636 68.936 467.377 71.0693 472.412 75.336C477.447 79.5173 480.22 85.192 480.732 92.36H463.58C463.324 89.544 462.129 87.3253 459.996 85.704C457.948 83.9973 455.175 83.144 451.676 83.144C448.433 83.144 445.916 83.7413 444.124 84.936C442.417 86.1307 441.564 87.7947 441.564 89.928C441.564 92.3173 442.759 94.152 445.148 95.432C447.537 96.6267 451.249 97.864 456.284 99.144C461.404 100.424 465.628 101.747 468.956 103.112C472.284 104.477 475.143 106.611 477.532 109.512C480.007 112.328 481.287 116.083 481.372 120.776C481.372 124.872 480.22 128.541 477.916 131.784C475.697 135.027 472.455 137.587 468.188 139.464C464.007 141.256 459.1 142.152 453.468 142.152ZM521.974 105.544C521.974 98.2053 523.467 91.8053 526.454 86.344C529.441 80.7973 533.579 76.5307 538.87 73.544C544.161 70.472 550.219 68.936 557.046 68.936C565.835 68.936 573.089 71.1547 578.806 75.592C584.609 79.944 588.491 86.088 590.454 94.024H571.126C570.102 90.952 568.353 88.5627 565.878 86.856C563.489 85.064 560.502 84.168 556.918 84.168C551.798 84.168 547.745 86.0453 544.758 89.8C541.771 93.4693 540.278 98.7173 540.278 105.544C540.278 112.285 541.771 117.533 544.758 121.288C547.745 124.957 551.798 126.792 556.918 126.792C564.171 126.792 568.907 123.549 571.126 117.064H590.454C588.491 124.744 584.609 130.845 578.806 135.368C573.003 139.891 565.75 142.152 557.046 142.152C550.219 142.152 544.161 140.659 538.87 137.672C533.579 134.6 529.441 130.333 526.454 124.872C523.467 119.325 521.974 112.883 521.974 105.544ZM635.07 142.152C628.243 142.152 622.099 140.659 616.638 137.672C611.177 134.6 606.867 130.291 603.71 124.744C600.638 119.197 599.102 112.797 599.102 105.544C599.102 98.2907 600.681 91.8907 603.838 86.344C607.081 80.7973 611.475 76.5307 617.022 73.544C622.569 70.472 628.755 68.936 635.582 68.936C642.409 68.936 648.595 70.472 654.142 73.544C659.689 76.5307 664.041 80.7973 667.198 86.344C670.441 91.8907 672.062 98.2907 672.062 105.544C672.062 112.797 670.398 119.197 667.07 124.744C663.827 130.291 659.39 134.6 653.758 137.672C648.211 140.659 641.982 142.152 635.07 142.152ZM635.07 126.536C638.313 126.536 641.342 125.768 644.158 124.232C647.059 122.611 649.363 120.221 651.07 117.064C652.777 113.907 653.63 110.067 653.63 105.544C653.63 98.8027 651.838 93.64 648.254 90.056C644.755 86.3867 640.446 84.552 635.326 84.552C630.206 84.552 625.897 86.3867 622.398 90.056C618.985 93.64 617.278 98.8027 617.278 105.544C617.278 112.285 618.942 117.491 622.27 121.16C625.683 124.744 629.95 126.536 635.07 126.536ZM773.271 69.064C781.975 69.064 788.972 71.752 794.263 77.128C799.639 82.4187 802.327 89.8427 802.327 99.4V141H784.407V101.832C784.407 96.2853 782.999 92.0613 780.183 89.16C777.367 86.1733 773.527 84.68 768.663 84.68C763.799 84.68 759.916 86.1733 757.015 89.16C754.199 92.0613 752.791 96.2853 752.791 101.832V141H734.871V101.832C734.871 96.2853 733.463 92.0613 730.647 89.16C727.831 86.1733 723.991 84.68 719.127 84.68C714.178 84.68 710.252 86.1733 707.351 89.16C704.535 92.0613 703.127 96.2853 703.127 101.832V141H685.207V70.088H703.127V78.664C705.431 75.6773 708.375 73.3307 711.959 71.624C715.628 69.9173 719.639 69.064 723.991 69.064C729.538 69.064 734.487 70.2587 738.839 72.648C743.191 74.952 746.562 78.28 748.951 82.632C751.255 78.536 754.583 75.2507 758.935 72.776C763.372 70.3013 768.151 69.064 773.271 69.064ZM885.252 104.008C885.252 106.568 885.081 108.872 884.74 110.92H832.9C833.327 116.04 835.119 120.051 838.276 122.952C841.433 125.853 845.316 127.304 849.924 127.304C856.58 127.304 861.316 124.445 864.132 118.728H883.46C881.412 125.555 877.487 131.187 871.684 135.624C865.881 139.976 858.756 142.152 850.308 142.152C843.481 142.152 837.337 140.659 831.876 137.672C826.5 134.6 822.276 130.291 819.204 124.744C816.217 119.197 814.724 112.797 814.724 105.544C814.724 98.2053 816.217 91.7627 819.204 86.216C822.191 80.6693 826.372 76.4027 831.748 73.416C837.124 70.4293 843.311 68.936 850.308 68.936C857.049 68.936 863.065 70.3867 868.356 73.288C873.732 76.1893 877.871 80.328 880.772 85.704C883.759 90.9947 885.252 97.096 885.252 104.008ZM866.692 98.888C866.607 94.28 864.943 90.6107 861.7 87.88C858.457 85.064 854.489 83.656 849.796 83.656C845.359 83.656 841.604 85.0213 838.532 87.752C835.545 90.3973 833.711 94.1093 833.028 98.888H866.692ZM928.668 126.792C935.921 126.792 940.657 123.549 942.876 117.064H962.204C960.412 123.976 957.084 129.608 952.22 133.96C947.441 138.312 941.425 140.915 934.172 141.768V146.76C938.865 146.76 942.791 147.955 945.948 150.344C949.191 152.733 950.812 156.189 950.812 160.712C950.812 165.32 949.148 168.861 945.82 171.336C942.577 173.811 938.567 175.048 933.788 175.048H915.612V164.552H930.844C932.892 164.552 934.428 164.253 935.452 163.656C936.561 163.059 937.116 161.992 937.116 160.456C937.116 158.92 936.561 157.853 935.452 157.256C934.428 156.744 932.892 156.488 930.844 156.488H922.908V141.768C917.105 140.915 911.985 138.909 907.548 135.752C903.196 132.509 899.783 128.328 897.308 123.208C894.919 118.003 893.724 112.115 893.724 105.544C893.724 98.2053 895.217 91.8053 898.204 86.344C901.191 80.7973 905.329 76.5307 910.62 73.544C915.911 70.472 921.969 68.936 928.796 68.936C937.585 68.936 944.839 71.1547 950.556 75.592C956.359 79.944 960.241 86.088 962.204 94.024H942.876C941.852 90.952 940.103 88.5627 937.628 86.856C935.239 85.064 932.252 84.168 928.668 84.168C923.548 84.168 919.495 86.0453 916.508 89.8C913.521 93.4693 912.028 98.7173 912.028 105.544C912.028 112.285 913.521 117.533 916.508 121.288C919.495 124.957 923.548 126.792 928.668 126.792ZM970.724 105.288C970.724 98.12 972.132 91.7627 974.948 86.216C977.849 80.6693 981.732 76.4027 986.596 73.416C991.545 70.4293 997.049 68.936 1003.11 68.936C1008.4 68.936 1013.01 70.0027 1016.93 72.136C1020.94 74.2693 1024.14 76.9573 1026.53 80.2V70.088H1044.58V141H1026.53V130.632C1024.23 133.96 1021.03 136.733 1016.93 138.952C1012.92 141.085 1008.27 142.152 1002.98 142.152C997.007 142.152 991.545 140.616 986.596 137.544C981.732 134.472 977.849 130.163 974.948 124.616C972.132 118.984 970.724 112.541 970.724 105.288ZM1026.53 105.544C1026.53 101.192 1025.68 97.48 1023.97 94.408C1022.27 91.2507 1019.96 88.8613 1017.06 87.24C1014.16 85.5333 1011.04 84.68 1007.72 84.68C1004.39 84.68 1001.32 85.4907 998.5 87.112C995.684 88.7333 993.38 91.1227 991.588 94.28C989.881 97.352 989.028 101.021 989.028 105.288C989.028 109.555 989.881 113.309 991.588 116.552C993.38 119.709 995.684 122.141 998.5 123.848C1001.4 125.555 1004.47 126.408 1007.72 126.408C1011.04 126.408 1014.16 125.597 1017.06 123.976C1019.96 122.269 1022.27 119.88 1023.97 116.808C1025.68 113.651 1026.53 109.896 1026.53 105.544ZM1080 81.096C1082.31 77.3413 1085.29 74.3973 1088.96 72.264C1092.72 70.1307 1096.98 69.064 1101.76 69.064V87.88H1097.03C1091.39 87.88 1087.13 89.2027 1084.23 91.848C1081.41 94.4933 1080 99.1013 1080 105.672V141H1062.08V70.088H1080V81.096ZM1138.79 48.584C1147.67 48.584 1154.79 51.016 1160.17 55.88C1165.63 60.6587 1168.36 67.272 1168.36 75.72C1168.36 84.0827 1165.67 90.4827 1160.3 94.92C1154.92 99.272 1147.79 101.448 1138.92 101.448L1138.41 111.304H1122.66L1122.02 89.544H1127.78C1135.21 89.544 1140.93 88.5627 1144.94 86.6C1148.95 84.6373 1150.95 81.0533 1150.95 75.848C1150.95 72.0933 1149.84 69.1067 1147.62 66.888C1145.49 64.6693 1142.55 63.56 1138.79 63.56C1134.87 63.56 1131.79 64.6267 1129.58 66.76C1127.44 68.8933 1126.38 71.8373 1126.38 75.592H1109.48C1109.39 70.3867 1110.5 65.736 1112.81 61.64C1115.11 57.544 1118.48 54.344 1122.92 52.04C1127.44 49.736 1132.73 48.584 1138.79 48.584ZM1130.47 141.896C1127.23 141.896 1124.54 140.915 1122.41 138.952C1120.36 136.904 1119.34 134.387 1119.34 131.4C1119.34 128.413 1120.36 125.939 1122.41 123.976C1124.54 121.928 1127.23 120.904 1130.47 120.904C1133.63 120.904 1136.23 121.928 1138.28 123.976C1140.33 125.939 1141.35 128.413 1141.35 131.4C1141.35 134.387 1140.33 136.904 1138.28 138.952C1136.23 140.915 1133.63 141.896 1130.47 141.896Z" fill="#DCDCDC"/>
<g filter="url(#filter0_d_5_2)">
<rect x="24" y="154" width="1150" height="10" fill="#9A333D"/>
</g>
<defs>
<filter id="filter0_d_5_2" x="0" y="130" width="1198" height="58" filterUnits="userSpaceOnUse" color-interpolation-filters="sRGB">
<feFlood flood-opacity="0" result="BackgroundImageFix"/>
<feColorMatrix in="SourceAlpha" type="matrix" values="0 0 0 0 0 0 0 0 0 0 0 0 0 0 0 0 0 0 127 0" result="hardAlpha"/>
<feMorphology radius="4" operator="dilate" in="SourceAlpha" result="effect1_dropShadow_5_2"/>
<feOffset/>
<feGaussianBlur stdDeviation="10"/>
<feComposite in2="hardAlpha" operator="out"/>
<feColorMatrix type="matrix" values="0 0 0 0 0.603922 0 0 0 0 0.2 0 0 0 0 0.239216 0 0 0 0.38 0"/>
<feBlend mode="normal" in2="BackgroundImageFix" result="effect1_dropShadow_5_2"/>
<feBlend mode="normal" in="SourceGraphic" in2="effect1_dropShadow_5_2" result="shape"/>
</filter>
</defs>
</svg>
